<mxfile host="65bd71144e">
    <diagram id="ns_ofVUFgKG5tG45Sp3J" name="Page-1">
        <mxGraphModel dx="555" dy="480" grid="1" gridSize="10" guides="1" tooltips="1" connect="1" arrows="1" fold="1" page="1" pageScale="1" pageWidth="850" pageHeight="1100" math="0" shadow="0">
            <root>
                <mxCell id="0"/>
                <mxCell id="1" parent="0"/>
                <mxCell id="11" style="edgeStyle=none;html=1;entryX=0.5;entryY=1;entryDx=0;entryDy=0;endArrow=block;endFill=0;" edge="1" parent="1" source="2" target="7">
                    <mxGeometry relative="1" as="geometry"/>
                </mxCell>
                <mxCell id="2" value="Jogador" style="swimlane;" vertex="1" parent="1">
                    <mxGeometry x="160" y="490" width="115" height="50" as="geometry"/>
                </mxCell>
                <mxCell id="12" style="edgeStyle=none;html=1;entryX=0.5;entryY=1;entryDx=0;entryDy=0;endArrow=open;endFill=0;dashed=1;" edge="1" parent="1" source="7" target="8">
                    <mxGeometry relative="1" as="geometry"/>
                </mxCell>
                <mxCell id="7" value="Usuario" style="swimlane;" vertex="1" parent="1">
                    <mxGeometry x="160" y="370" width="115" height="50" as="geometry"/>
                </mxCell>
                <mxCell id="13" style="edgeStyle=none;html=1;entryX=0.5;entryY=1;entryDx=0;entryDy=0;dashed=1;endArrow=open;endFill=0;" edge="1" parent="1" source="8" target="9">
                    <mxGeometry relative="1" as="geometry"/>
                </mxCell>
                <mxCell id="8" value="Suporte" style="swimlane;" vertex="1" parent="1">
                    <mxGeometry x="160" y="240" width="115" height="50" as="geometry"/>
                </mxCell>
                <mxCell id="9" value="&lt;&lt;Interface&gt;&gt;&#10;Equipe" style="swimlane;startSize=40;" vertex="1" parent="1">
                    <mxGeometry x="160" y="110" width="115" height="50" as="geometry"/>
                </mxCell>
                <mxCell id="14" style="edgeStyle=none;html=1;entryX=1;entryY=0.5;entryDx=0;entryDy=0;endArrow=openThin;endFill=0;" edge="1" parent="1" source="10" target="9">
                    <mxGeometry relative="1" as="geometry"/>
                </mxCell>
                <mxCell id="10" value="EquipeDesenvolvedores" style="swimlane;" vertex="1" parent="1">
                    <mxGeometry x="430" y="110" width="155" height="50" as="geometry"/>
                </mxCell>
            </root>
        </mxGraphModel>
    </diagram>
</mxfile>